<?xml version="1.0" encoding="UTF-8" standalone="no"?>
<!DOCTYPE svg PUBLIC "-//W3C//DTD SVG 1.1//EN"
 "http://www.w3.org/Graphics/SVG/1.1/DTD/svg11.dtd">
<!-- Generated by graphviz version 2.39.20150211.0545 (20150211.0545)
 -->
<!-- Title: g Pages: 1 -->
<svg width="260pt" height="260pt"
 viewBox="0.00 0.00 260.25 260.00" xmlns="http://www.w3.org/2000/svg" xmlns:xlink="http://www.w3.org/1999/xlink">
<g id="graph0" class="graph" transform="scale(1 1) rotate(0) translate(4 256)">
<title>g</title>
<polygon fill="white" stroke="transparent" points="-4,4 -4,-256 256.246,-256 256.246,4 -4,4"/>
<!-- g0 -->
<g id="node1" class="node"><title>g0</title>
<ellipse fill="none" stroke="black" cx="138.246" cy="-162" rx="41.6928" ry="18"/>
<text text-anchor="middle" x="138.246" y="-158.3" font-family="Times,serif" font-size="14.00">argparse</text>
</g>
<!-- g1 -->
<g id="node2" class="node"><title>g1</title>
<ellipse fill="none" stroke="black" cx="42.2463" cy="-90" rx="42.4939" ry="18"/>
<text text-anchor="middle" x="42.2463" y="-86.3" font-family="Times,serif" font-size="14.00">textwrap</text>
</g>
<!-- g0&#45;&gt;g1 -->
<g id="edge1" class="edge"><title>g0&#45;&gt;g1</title>
<path fill="none" stroke="black" d="M117.416,-146.377C104.047,-136.351 86.4865,-123.18 71.7003,-112.091"/>
<polygon fill="black" stroke="black" points="73.4677,-109.041 63.3677,-105.841 69.2677,-114.641 73.4677,-109.041"/>
</g>
<!-- g2 -->
<g id="node3" class="node"><title>g2</title>
<ellipse fill="none" stroke="black" cx="138.246" cy="-90" rx="35.9954" ry="18"/>
<text text-anchor="middle" x="138.246" y="-86.3" font-family="Times,serif" font-size="14.00">gettext</text>
</g>
<!-- g0&#45;&gt;g2 -->
<g id="edge2" class="edge"><title>g0&#45;&gt;g2</title>
<path fill="none" stroke="black" d="M138.246,-143.831C138.246,-136.131 138.246,-126.974 138.246,-118.417"/>
<polygon fill="black" stroke="black" points="141.746,-118.413 138.246,-108.413 134.746,-118.413 141.746,-118.413"/>
</g>
<!-- g3 -->
<g id="node4" class="node"><title>g3</title>
<ellipse fill="none" stroke="black" cx="220.246" cy="-90" rx="28.6953" ry="18"/>
<text text-anchor="middle" x="220.246" y="-86.3" font-family="Times,serif" font-size="14.00">copy</text>
</g>
<!-- g0&#45;&gt;g3 -->
<g id="edge3" class="edge"><title>g0&#45;&gt;g3</title>
<path fill="none" stroke="black" d="M156.853,-145.662C168.327,-135.588 183.175,-122.55 195.617,-111.625"/>
<polygon fill="black" stroke="black" points="198.181,-114.032 203.386,-104.804 193.563,-108.772 198.181,-114.032"/>
</g>
<!-- g6 -->
<g id="node7" class="node"><title>g6</title>
<ellipse fill="none" stroke="black" cx="97.2463" cy="-18" rx="32.4942" ry="18"/>
<text text-anchor="middle" x="97.2463" y="-14.3" font-family="Times,serif" font-size="14.00">locale</text>
</g>
<!-- g2&#45;&gt;g6 -->
<g id="edge6" class="edge"><title>g2&#45;&gt;g6</title>
<path fill="none" stroke="black" d="M128.321,-72.5708C123.436,-63.9922 117.448,-53.4762 112.037,-43.9732"/>
<polygon fill="black" stroke="black" points="115.07,-42.2266 107.08,-35.2687 108.987,-45.6905 115.07,-42.2266"/>
</g>
<!-- g7 -->
<g id="node8" class="node"><title>g7</title>
<ellipse fill="none" stroke="black" cx="179.246" cy="-18" rx="31.3957" ry="18"/>
<text text-anchor="middle" x="179.246" y="-14.3" font-family="Times,serif" font-size="14.00">struct</text>
</g>
<!-- g2&#45;&gt;g7 -->
<g id="edge7" class="edge"><title>g2&#45;&gt;g7</title>
<path fill="none" stroke="black" d="M148.171,-72.5708C153.056,-63.9922 159.045,-53.4762 164.456,-43.9732"/>
<polygon fill="black" stroke="black" points="167.506,-45.6905 169.413,-35.2687 161.423,-42.2266 167.506,-45.6905"/>
</g>
<!-- g4 -->
<g id="node5" class="node"><title>g4</title>
<ellipse fill="none" stroke="black" cx="181.246" cy="-234" rx="44.6926" ry="18"/>
<text text-anchor="middle" x="181.246" y="-230.3" font-family="Times,serif" font-size="14.00">examples</text>
</g>
<!-- g4&#45;&gt;g0 -->
<g id="edge4" class="edge"><title>g4&#45;&gt;g0</title>
<path fill="none" stroke="black" d="M170.617,-216.202C165.618,-207.832 159.555,-197.68 154.034,-188.436"/>
<polygon fill="black" stroke="black" points="156.886,-186.384 148.753,-179.593 150.876,-189.973 156.886,-186.384"/>
</g>
<!-- g5 -->
<g id="node6" class="node"><title>g5</title>
<ellipse fill="none" stroke="black" cx="225.246" cy="-162" rx="27" ry="18"/>
<text text-anchor="middle" x="225.246" y="-158.3" font-family="Times,serif" font-size="14.00">json</text>
</g>
<!-- g4&#45;&gt;g5 -->
<g id="edge5" class="edge"><title>g4&#45;&gt;g5</title>
<path fill="none" stroke="black" d="M192.123,-216.202C197.368,-207.619 203.759,-197.161 209.522,-187.73"/>
<polygon fill="black" stroke="black" points="212.57,-189.455 214.798,-179.097 206.597,-185.805 212.57,-189.455"/>
</g>
</g>
</svg>
