<?xml version="1.0" encoding="UTF-8" standalone="no"?>
<!DOCTYPE svg PUBLIC "-//W3C//DTD SVG 1.1//EN"
 "http://www.w3.org/Graphics/SVG/1.1/DTD/svg11.dtd">
<!-- Generated by graphviz version 2.39.20150211.0545 (20150211.0545)
 -->
<!-- Title: g Pages: 1 -->
<svg width="521pt" height="260pt"
 viewBox="0.00 0.00 521.44 260.00" xmlns="http://www.w3.org/2000/svg" xmlns:xlink="http://www.w3.org/1999/xlink">
<g id="graph0" class="graph" transform="scale(1 1) rotate(0) translate(4 256)">
<title>g</title>
<polygon fill="white" stroke="transparent" points="-4,4 -4,-256 517.441,-256 517.441,4 -4,4"/>
<!-- g0 -->
<g id="node1" class="node"><title>g0</title>
<ellipse fill="none" stroke="black" cx="189.195" cy="-162" rx="27" ry="18"/>
<text text-anchor="middle" x="189.195" y="-158.3" font-family="Times,serif" font-size="14.00">json</text>
</g>
<!-- g1 -->
<g id="node2" class="node"><title>g1</title>
<ellipse fill="none" stroke="black" cx="57.1949" cy="-90" rx="57.3905" ry="18"/>
<text text-anchor="middle" x="57.1949" y="-86.3" font-family="Times,serif" font-size="14.00">json.decoder</text>
</g>
<!-- g0&#45;&gt;g1 -->
<g id="edge1" class="edge"><title>g0&#45;&gt;g1</title>
<path fill="none" stroke="black" d="M168.279,-150.591C148.554,-139.832 118.538,-123.46 94.6776,-110.445"/>
<polygon fill="black" stroke="black" points="96.3237,-107.356 85.8687,-105.64 92.9717,-113.501 96.3237,-107.356"/>
</g>
<!-- g2 -->
<g id="node3" class="node"><title>g2</title>
<ellipse fill="none" stroke="black" cx="189.195" cy="-90" rx="57.3905" ry="18"/>
<text text-anchor="middle" x="189.195" y="-86.3" font-family="Times,serif" font-size="14.00">json.encoder</text>
</g>
<!-- g0&#45;&gt;g2 -->
<g id="edge2" class="edge"><title>g0&#45;&gt;g2</title>
<path fill="none" stroke="black" d="M189.195,-143.831C189.195,-136.131 189.195,-126.974 189.195,-118.417"/>
<polygon fill="black" stroke="black" points="192.695,-118.413 189.195,-108.413 185.695,-118.413 192.695,-118.413"/>
</g>
<!-- g3 -->
<g id="node4" class="node"><title>g3</title>
<ellipse fill="none" stroke="black" cx="57.1949" cy="-18" rx="55.7903" ry="18"/>
<text text-anchor="middle" x="57.1949" y="-14.3" font-family="Times,serif" font-size="14.00">json.scanner</text>
</g>
<!-- g1&#45;&gt;g3 -->
<g id="edge3" class="edge"><title>g1&#45;&gt;g3</title>
<path fill="none" stroke="black" d="M57.1949,-71.8314C57.1949,-64.131 57.1949,-54.9743 57.1949,-46.4166"/>
<polygon fill="black" stroke="black" points="60.695,-46.4132 57.1949,-36.4133 53.695,-46.4133 60.695,-46.4132"/>
</g>
<!-- g4 -->
<g id="node5" class="node"><title>g4</title>
<ellipse fill="none" stroke="black" cx="300.195" cy="-90" rx="35.9954" ry="18"/>
<text text-anchor="middle" x="300.195" y="-86.3" font-family="Times,serif" font-size="14.00">gettext</text>
</g>
<!-- g5 -->
<g id="node6" class="node"><title>g5</title>
<ellipse fill="none" stroke="black" cx="259.195" cy="-18" rx="32.4942" ry="18"/>
<text text-anchor="middle" x="259.195" y="-14.3" font-family="Times,serif" font-size="14.00">locale</text>
</g>
<!-- g4&#45;&gt;g5 -->
<g id="edge4" class="edge"><title>g4&#45;&gt;g5</title>
<path fill="none" stroke="black" d="M290.27,-72.5708C285.385,-63.9922 279.397,-53.4762 273.985,-43.9732"/>
<polygon fill="black" stroke="black" points="277.018,-42.2266 269.028,-35.2687 270.935,-45.6905 277.018,-42.2266"/>
</g>
<!-- g6 -->
<g id="node7" class="node"><title>g6</title>
<ellipse fill="none" stroke="black" cx="341.195" cy="-18" rx="31.3957" ry="18"/>
<text text-anchor="middle" x="341.195" y="-14.3" font-family="Times,serif" font-size="14.00">struct</text>
</g>
<!-- g4&#45;&gt;g6 -->
<g id="edge5" class="edge"><title>g4&#45;&gt;g6</title>
<path fill="none" stroke="black" d="M310.12,-72.5708C315.005,-63.9922 320.993,-53.4762 326.405,-43.9732"/>
<polygon fill="black" stroke="black" points="329.454,-45.6905 331.361,-35.2687 323.371,-42.2266 329.454,-45.6905"/>
</g>
<!-- g7 -->
<g id="node8" class="node"><title>g7</title>
<ellipse fill="none" stroke="black" cx="265.195" cy="-234" rx="96.6831" ry="18"/>
<text text-anchor="middle" x="265.195" y="-230.3" font-family="Times,serif" font-size="14.00">examples.02dump_json</text>
</g>
<!-- g7&#45;&gt;g0 -->
<g id="edge6" class="edge"><title>g7&#45;&gt;g0</title>
<path fill="none" stroke="black" d="M246.408,-216.202C236.221,-206.551 223.535,-194.532 212.698,-184.266"/>
<polygon fill="black" stroke="black" points="214.863,-181.496 205.197,-177.159 210.049,-186.578 214.863,-181.496"/>
</g>
<!-- g8 -->
<g id="node9" class="node"><title>g8</title>
<ellipse fill="none" stroke="black" cx="341.195" cy="-162" rx="41.6928" ry="18"/>
<text text-anchor="middle" x="341.195" y="-158.3" font-family="Times,serif" font-size="14.00">argparse</text>
</g>
<!-- g7&#45;&gt;g8 -->
<g id="edge7" class="edge"><title>g7&#45;&gt;g8</title>
<path fill="none" stroke="black" d="M283.981,-216.202C293.744,-206.954 305.802,-195.53 316.328,-185.558"/>
<polygon fill="black" stroke="black" points="318.814,-188.024 323.667,-178.606 314,-182.942 318.814,-188.024"/>
</g>
<!-- g8&#45;&gt;g4 -->
<g id="edge8" class="edge"><title>g8&#45;&gt;g4</title>
<path fill="none" stroke="black" d="M331.06,-144.202C326.258,-135.77 320.426,-125.529 315.131,-116.229"/>
<polygon fill="black" stroke="black" points="318.062,-114.302 310.072,-107.345 311.979,-117.766 318.062,-114.302"/>
</g>
<!-- g9 -->
<g id="node10" class="node"><title>g9</title>
<ellipse fill="none" stroke="black" cx="382.195" cy="-90" rx="28.6953" ry="18"/>
<text text-anchor="middle" x="382.195" y="-86.3" font-family="Times,serif" font-size="14.00">copy</text>
</g>
<!-- g8&#45;&gt;g9 -->
<g id="edge9" class="edge"><title>g8&#45;&gt;g9</title>
<path fill="none" stroke="black" d="M351.33,-144.202C356.167,-135.707 362.05,-125.377 367.377,-116.022"/>
<polygon fill="black" stroke="black" points="370.552,-117.519 372.459,-107.097 364.469,-114.055 370.552,-117.519"/>
</g>
<!-- g10 -->
<g id="node11" class="node"><title>g10</title>
<ellipse fill="none" stroke="black" cx="471.195" cy="-90" rx="42.4939" ry="18"/>
<text text-anchor="middle" x="471.195" y="-86.3" font-family="Times,serif" font-size="14.00">textwrap</text>
</g>
<!-- g8&#45;&gt;g10 -->
<g id="edge10" class="edge"><title>g8&#45;&gt;g10</title>
<path fill="none" stroke="black" d="M366.879,-147.775C386.691,-136.802 414.31,-121.506 436.152,-109.408"/>
<polygon fill="black" stroke="black" points="438.067,-112.349 445.119,-104.442 434.676,-106.225 438.067,-112.349"/>
</g>
</g>
</svg>
